<?xml version="1.0" encoding="UTF-8"?>
<svg id="_内容" data-name="内容" xmlns="http://www.w3.org/2000/svg" viewBox="0 0 200 200">
  <defs>
    <style>
      .cls-1 {
        fill: #111;
      }

      .cls-2 {
        fill: #fff;
        fill-rule: evenodd;
      }
    </style>
  </defs>
  <rect class="cls-1" x="-20.92" y="-12.75" width="241.84" height="225.49"/>
  <g id="BAI-LOGO--Horizontal-Version_white_" data-name="BAI-LOGO--Horizontal-Version（white)">
    <path id="_形状结合" data-name="形状结合" class="cls-2" d="M53.71,40.61l7.62.12c21.47.35,37.3,1.28,48.48,2.67,7.85.98,15.74,3.76,22.06,8.14,7.74,5.37,12.82,12.87,14.17,22.17l.02.12v.12c1.06,10.31-1.67,16.84-7.89,23.66-.14.15-.5.54-.91.99l-.11.12.04.04c5.87,6.51,8.82,14.4,8.91,24.54,0,15.08-13.87,30.02-31.24,32.23-4.12.52-9.34.93-17.41,1.39.08,0,.12,0,.12,0h0c-.3.01-8.52.45-17.36.93l-.59.03-1,.06c-.28.02-.56.03-.83.05l-.83.05c-5.97.33-11.82.67-15.35.89l-7.12.45,1.35-7.01,1.31-6.83c3.36-17,10.97-26.59,25.18-33.61,4.48-2.21,9.28-3.37,17.43-4.64.41-.06.83-.13,1.33-.21.31-.05.66-.1,1.31-.2,10.28-1.57,14.4-2.77,16.3-4.91,1.35.46,2.84,1.45,4.48,2.98s2.9,2.98,3.77,4.36c-2.55,2.88-6.1,4.75-10.74,6.1-.3.09-.6.17-.91.25l-.45.12c-2.72.71-5.59,1.22-10.78,2.02-.66.1-1,.15-1.31.2-.49.08-.9.14-1.3.2-7.08,1.11-11.08,2.07-14.25,3.64-11.07,5.47-16.44,12.15-19.14,25.41l-.04.22h.2c2.1-.13,4.37-.26,6.69-.39l.73-.04,1.1-.06,1.1-.06.73-.04c8.69-.48,17.03-.92,18.23-.98h.11s.04,0,.04,0l.38-.02c7.38-.43,12.21-.8,15.89-1.26l.25-.03c12.04-1.53,21.59-11.48,21.59-20.78s-2.57-14.46-8.58-20.07c-.17-.14-.48-.42-.94-.82-3.43-3.17-11.07-6.06-19.26-6.86-1.28-.12-2.26-.22-2.96-.29h-.07s-.07-.01-.07-.01c-16.44-1.71-23.15-4.32-30.01-11.23-5.87-5.92-10.86-15.47-13.5-24.62l-.11-.39-3.59-11.62-2.25-7.28ZM68.78,51.94l1.36,4.4.04.14c2.14,7.62,6.34,15.74,10.83,20.26,5.06,5.1,9.8,6.78,25.85,8.27,8.04.71,15.91,3.03,21.62,6.46l.22.13.07-.08c.54-.58,1.03-1.11,1.21-1.3l.04-.04c4.2-4.61,5.71-8.16,5.1-14.79l-.02-.19-.04-.23c-1.83-11.21-12.64-18.73-26.2-20.55l-.42-.05c-9.36-1.17-22.31-2.01-39.45-2.43h-.21Z"/>
  </g>
</svg>