<?xml version="1.0" encoding="UTF-8"?>
<svg id="_内容" data-name="内容" xmlns="http://www.w3.org/2000/svg" viewBox="0 0 63.3 32">
  <defs>
    <style>
      .cls-1 {
        fill-rule: evenodd;
      }
    </style>
  </defs>
  <g id="BAI-LOGO--Horizontal-Version_white_" data-name="BAI-LOGO--Horizontal-Version（white)">
    <path id="_形状结合" data-name="形状结合" class="cls-1" d="M8.48,6.19l1.26.02c3.55.06,6.16.21,8.01.44,1.3.16,2.6.62,3.64,1.34,1.28.89,2.12,2.13,2.34,3.66v.02s0,.02,0,.02c.17,1.7-.28,2.78-1.3,3.91-.02.02-.08.09-.15.16l-.02.02h0c.97,1.08,1.46,2.38,1.47,4.06,0,2.49-2.29,4.96-5.16,5.32-.68.09-1.54.15-2.88.23.01,0,.02,0,.02,0h0s-1.41.07-2.87.15h-.1s-.17.01-.17.01c-.05,0-.09,0-.14,0h-.14c-.99.06-1.95.12-2.53.15l-1.18.07.22-1.16.22-1.13c.56-2.81,1.81-4.39,4.16-5.55.74-.37,1.53-.56,2.88-.77.07-.01.14-.02.22-.03.05,0,.11-.02.22-.03,1.7-.26,2.38-.46,2.69-.81.22.08.47.24.74.49s.48.49.62.72c-.42.47-1.01.78-1.77,1.01-.05.01-.1.03-.15.04l-.07.02c-.45.12-.92.2-1.78.33-.11.02-.16.03-.22.03-.08.01-.15.02-.21.03-1.17.18-1.83.34-2.35.6-1.83.9-2.72,2.01-3.16,4.2v.04s.03,0,.03,0c.35-.02.72-.04,1.1-.06h.12s.18-.02.18-.02h.18s.12-.02.12-.02c1.43-.08,2.81-.15,3.01-.16h.02s0,0,0,0h.06c1.22-.07,2.02-.14,2.62-.21h.04c1.99-.26,3.57-1.9,3.57-3.44s-.43-2.39-1.42-3.32c-.03-.02-.08-.07-.16-.14-.57-.52-1.83-1-3.18-1.13-.21-.02-.37-.04-.49-.05h-.01s-.01,0-.01,0c-2.71-.28-3.82-.71-4.96-1.85-.97-.98-1.79-2.55-2.23-4.07l-.02-.06-.59-1.92-.37-1.2ZM27.03,22.35c.85,0,1.54.69,1.54,1.54s-.69,1.54-1.54,1.54-1.54-.69-1.54-1.54.69-1.54,1.54-1.54ZM40.88,7.07l3.54,10.82c.3.91.57,1.7.79,2.37l.05.15c.23.7.45,1.32.64,1.85.19.53.37,1.02.55,1.47h1.24c.11.29.16.54.16.76,0,.2-.05.36-.16.47-.11.12-.29.18-.54.18h-4.62c-.11-.29-.16-.54-.16-.76,0-.43.23-.65.7-.65h.59c-.13-.56-.29-1.18-.49-1.87s-.41-1.42-.65-2.22h-6.6c-.23.81-.45,1.56-.64,2.24s-.35,1.3-.47,1.84h1.3c.11.29.16.54.16.76,0,.43-.23.65-.7.65h-4.43c-.09-.29-.14-.54-.14-.76,0-.2.05-.36.15-.47.1-.12.28-.18.55-.18h.78c.18-.54.36-1.07.54-1.58.18-.51.37-1.07.55-1.66.19-.59.41-1.26.66-2l3.27-9.95c.13-.36.26-.65.41-.87.14-.22.33-.37.57-.46.23-.09.53-.14.89-.14h1.49ZM54.69,7.07c.09.29.14.54.14.76,0,.43-.23.65-.7.65h-.78c-.04.79-.06,1.57-.07,2.34,0,.77-.01,1.49-.01,2.18v6.22c0,.69,0,1.41.01,2.18,0,.77.03,1.55.07,2.34h1.35c.09.29.14.54.14.76,0,.43-.23.65-.7.65h-4.65c-.11-.29-.16-.54-.16-.76,0-.43.23-.65.7-.65h.81c.02-.79.03-1.57.04-2.34,0-.71.01-1.38.01-2.02v-6.38c0-.69,0-1.41-.01-2.18,0-.77-.02-1.55-.04-2.34h-1.35c-.11-.29-.16-.54-.16-.76,0-.43.23-.65.7-.65h4.68ZM39.23,9.5c-.43,1.21-.9,2.56-1.39,4.07-.5,1.51-.97,2.98-1.42,4.42h5.62c-.45-1.44-.92-2.92-1.42-4.42-.5-1.51-.96-2.86-1.39-4.07ZM10.96,8.06l.22.73v.02c.36,1.26,1.05,2.6,1.79,3.35.84.84,1.62,1.12,4.27,1.37,1.33.12,2.63.5,3.57,1.07l.04.02h.01c.09-.11.17-.2.2-.23h0c.69-.77.94-1.35.84-2.45v-.03s0-.04,0-.04c-.3-1.85-2.09-3.09-4.33-3.39h-.07c-1.55-.2-3.68-.34-6.52-.41h-.04Z"/>
  </g>
</svg>